<?xml version="1.0" standalone="no"?>
<!DOCTYPE svg PUBLIC "-//W3C//DTD SVG 20010904//EN"
 "http://www.w3.org/TR/2001/REC-SVG-20010904/DTD/svg10.dtd">
<svg version="1.0" xmlns="http://www.w3.org/2000/svg"
 width="293.000000pt" height="293.000000pt" viewBox="0 0 293.000000 293.000000"
 preserveAspectRatio="xMidYMid meet">
<metadata>
Created by potrace 1.11, written by Peter Selinger 2001-2013
</metadata>
<g transform="translate(0.000000,293.000000) scale(0.100000,-0.100000)"
fill="#000000" stroke="none">
<path d="M1260 2825 c-102 -59 -225 -130 -275 -158 -49 -29 -98 -56 -107 -62
-46 -27 -248 -143 -293 -168 -27 -16 -60 -35 -72 -43 -12 -7 -39 -23 -60 -35
-152 -85 -250 -145 -260 -158 -9 -12 -12 -186 -13 -738 0 -705 0 -723 20 -741
10 -10 74 -49 141 -87 186 -107 198 -114 287 -166 46 -27 86 -49 88 -49 2 0
28 -16 58 -35 30 -19 57 -35 60 -35 3 0 34 -17 68 -38 35 -21 70 -42 78 -46 8
-4 24 -12 35 -19 24 -14 166 -96 215 -125 19 -10 75 -43 123 -71 49 -28 96
-51 104 -51 13 0 161 77 213 110 13 9 577 334 685 395 213 121 343 199 362
215 l23 20 0 723 c0 563 -3 727 -12 739 -7 9 -89 60 -183 114 -382 219 -700
403 -870 501 -99 58 -191 107 -205 109 -19 4 -71 -21 -210 -101z m162 -622
c38 -45 733 -1298 730 -1317 -7 -44 -24 -49 -167 -51 -80 -1 -145 3 -158 9
-19 10 -82 113 -191 309 -138 250 -173 307 -183 295 -9 -12 -41 -68 -113 -199
-141 -257 -228 -403 -243 -408 -9 -4 -81 -6 -158 -6 -126 1 -143 3 -155 20 -8
10 -14 27 -14 37 0 21 -4 13 170 318 67 118 134 235 148 260 14 25 61 107 104
183 48 84 77 145 73 154 -3 9 -46 87 -95 175 -51 88 -90 170 -90 184 0 47 22
53 181 54 127 0 148 -2 161 -17z"/>
</g>
</svg>
